<?xml version="1.0" encoding="UTF-8" standalone="no"?>
<!-- Created with Inkscape (http://www.inkscape.org/) -->

<svg
   xmlns:dc="http://purl.org/dc/elements/1.1/"
   xmlns:cc="http://creativecommons.org/ns#"
   xmlns:rdf="http://www.w3.org/1999/02/22-rdf-syntax-ns#"
   xmlns:svg="http://www.w3.org/2000/svg"
   xmlns="http://www.w3.org/2000/svg"
   xmlns:xlink="http://www.w3.org/1999/xlink"
   xmlns:sodipodi="http://sodipodi.sourceforge.net/DTD/sodipodi-0.dtd"
   xmlns:inkscape="http://www.inkscape.org/namespaces/inkscape"
   id="svg2"
   version="1.1"
   inkscape:version="0.48.1 "
   width="448"
   height="599"
   sodipodi:docname="Mapa.svg">
  <metadata
     id="metadata8">
    <rdf:RDF>
      <cc:Work
         rdf:about="">
        <dc:format>image/svg+xml</dc:format>
        <dc:type
           rdf:resource="http://purl.org/dc/dcmitype/StillImage" />
        <dc:title></dc:title>
      </cc:Work>
    </rdf:RDF>
  </metadata>
  <defs
     id="defs6">
    <linearGradient
       inkscape:collect="always"
       id="linearGradient3811">
      <stop
         style="stop-color:#6d6852;stop-opacity:1;"
         offset="0"
         id="stop3813" />
      <stop
         style="stop-color:#6d6852;stop-opacity:0;"
         offset="1"
         id="stop3815" />
    </linearGradient>
    <linearGradient
       inkscape:collect="always"
       xlink:href="#linearGradient3811"
       id="linearGradient3817"
       x1="182.27051"
       y1="214.39081"
       x2="199.7016"
       y2="214.39081"
       gradientUnits="userSpaceOnUse" />
  </defs>
  <sodipodi:namedview
     pagecolor="#ffffff"
     bordercolor="#666666"
     borderopacity="1"
     objecttolerance="10"
     gridtolerance="10"
     guidetolerance="10"
     inkscape:pageopacity="0"
     inkscape:pageshadow="2"
     inkscape:window-width="1287"
     inkscape:window-height="838"
     id="namedview4"
     showgrid="false"
     inkscape:zoom="1.2324198"
     inkscape:cx="350.36641"
     inkscape:cy="414.49711"
     inkscape:window-x="-8"
     inkscape:window-y="-8"
     inkscape:window-maximized="1"
     inkscape:current-layer="svg2" />
  <path
     style="fill:#cccccc;fill-opacity:0.97560972000000001;stroke:#3b2b33;stroke-width:0.20000000000000001;stroke-linecap:butt;stroke-linejoin:miter;stroke-miterlimit:4;stroke-opacity:1;stroke-dasharray:none"
     d="m 220.29831,33.040266 6.897,-16.228236 11.76547,-14.1997071 10.95406,0.8114118 11.35976,28.3994133 -23.12524,27.588001 3.24565,23.530943 17.03965,6.897 8.11412,0.811412 9.33123,-4.057059 32.45648,14.605415 -4.86847,7.70841 26.77658,53.95888 -10.54835,25.55948 -1.62282,25.55947 70.99853,30.83365 -3.24565,9.33123 40.16489,42.19342 1.62282,2.83994 -7.3027,-2.02853 0,14.60541 -4.86848,-0.81141 -7.70841,60.45018 7.70841,0.4057 0.81142,24.74806 28.80512,5.67989 c 0,0 4.05705,-5.27418 2.02852,2.02852 -2.02853,7.30271 -4.46276,7.30271 -4.46276,7.30271 l -5.27418,-5.67988 -3.65135,5.27418 -8.51982,-2.83994 -3.24565,5.27417 -4.86847,0 2.83994,15.82253 -1.62282,3.24565 -1.62283,11.35977 14.19971,11.76547 0,8.11411 -12.17118,2.83995 12.98259,9.73694 -13.794,13.794 7.70841,16.22823 -6.08559,49.09042 -8.11411,11.35976 -12.98259,-8.51982 -40.9763,-6.897 -17.85106,14.60541 -14.19971,30.02224 -81.54688,-44.22194 -2.83994,0.4057 -90.87813,-5.27418 -58.421646,-36.10782 2.839941,1.62282 -24.342354,-57.20453 -6.085588,-34.89071 -12.171177,-8.92553 2.434235,-4.86847 -6.085589,-7.70841 -6.491294,2.43424 -8.114118,-9.33124 -7.708412,-0.40571 0,-21.50241 6.085588,-0.81141 -3.651353,-4.86847 -3.651353,0.4057 0.405706,-5.27417 -3.245647,-4.46277 -4.057059,0.40571 -0.811412,-3.24565 -15.4168244,-0.4057 2.8399413,-7.30271 6.4912941,-3.24565 2.02853,-3.65135 1.622823,-2.83994 1.217118,-1.21712 -1.217118,-10.54835 c 0,0 -6.085588,-2.43424 -6.085588,-0.81142 0,1.62283 -1.2171178,-3.24564 -1.2171178,-3.24564 l 4.4627648,-1.21712 2.02853,-5.27418 3.245647,-0.4057 0,-4.05706 12.982589,-9.73694 0.811412,-5.27418 4.86847,-4.86847 -0.405705,-6.4913 4.057059,-2.02853 0,-9.33123 -2.434236,-0.40571 -1.217118,-4.05706 3.651354,-2.83994 6.085588,0.40571 -0.811412,-6.08559 6.491295,-3.24565 11.765471,-12.98259 2.028529,2.43424 0.405706,10.14265 7.302707,-8.92553 9.331235,-4.05706 0.405706,-5.27418 2.839942,2.02853 3.651353,6.08559 1.622823,1.62282 4.462765,-6.49129 -0.811412,-13.3883 4.868471,0.40571 3.24565,-8.11412 5.27417,-1.21712 1.62283,-6.49129 12.98259,-8.11412 8.51982,-1.21712 13.3883,-15.01111 -2.43424,-15.01112 7.30271,-3.65136 0.81141,-12.17117 4.05706,-0.40571 7.3027,-20.28529 -14.1997,-4.46277 11.76547,-38.54206 6.897,-2.839942 46.65618,10.548354 -5.67989,-17.85106 -12.17117,-3.651353 -0.40571,-6.085589 -4.05706,-4.86847 17.85106,6.085588 5.27418,-5.274177 -4.46277,-6.897 6.897,-8.114118 -7.3027,-8.92553 5.27417,-10.142647 4.86848,2.434235 z"
     id="path2987"
     inkscape:connector-curvature="0"
     sodipodi:nodetypes="ccccccccccccccccccccccccccscccccccccccccccccccccccccccccccccccccccccccccccccscccccccccccccccccccccccccccccccccccccccccccccccccccccccc" />
  <path
     style="fill:none;stroke:#fbfbfb;stroke-width:2.50000000000000000;stroke-linecap:round;stroke-linejoin:round;stroke-opacity:0.97948736000000003;stroke-miterlimit:4;stroke-dasharray:none"
     d="m 160.86239,135.0753 15.82253,-0.40571 0.40571,6.08559 4.66561,4.25991 17.44536,7.09986 6.897,0 0.20285,-4.86847 5.88274,-6.08559 6.08559,2.83994 4.05705,0.20285 3.0428,-4.25991"
     id="path3759"
     inkscape:connector-curvature="0" />
  <path
     style="fill:none;stroke:#fbfbfb;stroke-width:2.50000000000000000;stroke-linecap:round;stroke-linejoin:round;stroke-opacity:0.97948736000000003;stroke-miterlimit:4;stroke-dasharray:none"
     d="m 210.56136,98.561769 15.01112,40.976291 13.794,0 24.74806,14.60542 12.17118,2.63709 4.46276,-3.85421 7.91127,5.88274 5.67988,-5.07133 17.2425,6.69415 15.21397,-3.4485 -0.20285,0.20285"
     id="path3757"
     inkscape:connector-curvature="0" />
  <path
     style="fill:none;stroke:#fbfbfb;stroke-width:2.50000000000000000;stroke-linecap:round;stroke-linejoin:round;stroke-opacity:0.97948736000000003;stroke-miterlimit:4;stroke-dasharray:none"
     d="m 205.89575,152.52065 0,7.91127 -4.46277,12.98259 -3.65135,3.24564 -0.60856,6.69415 -4.05706,0.60856 0,8.92553 -7.70841,9.12838 2.83994,3.65136 6.897,0.81141 4.05706,5.27418 17.64821,-5.67989 24.95091,-0.20285 4.46276,-1.41997 18.25677,0.20285 3.24565,-3.24564 29.61653,0.60855 9.33123,-14.60541 12.77974,0.20285"
     id="path3761"
     inkscape:connector-curvature="0" />
  <path
     style="fill:none;stroke:#fbfbfb;stroke-width:2.50000000000000000;stroke-linecap:round;stroke-linejoin:round;stroke-opacity:0.97948736000000003;stroke-miterlimit:4;stroke-dasharray:none"
     d="m 250.32054,147.24648 -3.04279,10.95406 3.4485,4.25991 -3.4485,41.17915"
     id="path3763"
     inkscape:connector-curvature="0" />
  <path
     style="fill:none;stroke:#fbfbfb;stroke-width:2.50000000000000000;stroke-linecap:round;stroke-linejoin:round;stroke-opacity:0.97948736000000003;stroke-miterlimit:4;stroke-dasharray:none"
     d="m 33.065031,392.08999 c 0.811412,-1.21712 12.982589,-33.06503 12.982589,-33.06503 l 5.274177,-9.9398 0.405706,-25.55947 3.4485,-6.897 7.302706,0.20285 6.694147,-6.28844 -4.259912,-4.25991 c 0,0 -1.622823,-2.02853 -0.202852,-5.07132 1.41997,-3.0428 3.4485,0.4057 3.4485,0.4057 l 0.202853,3.0428 4.462765,-0.81141 4.665617,-4.05706 -0.202852,-9.12839 6.288441,-5.67988 4.665618,0.40571 3.4485,-2.43424 2.839941,-2.02853 3.448501,0 11.359764,-11.96832 -5.27418,-5.27418 2.23139,-1.21712 0.4057,-5.88273 -6.28844,-1.41997 0,-8.11412 -4.057058,-1.01427 4.868468,-6.08558 6.08559,3.04279 0.40571,-5.07132 3.24564,-3.4485 5.47703,-0.40571 3.65136,-5.88274 6.49129,-0.4057 4.66562,-8.51983 13.38829,0.40571 4.46277,-5.67988 7.09985,2.23138 1.41997,-0.20285 -0.20285,-3.65136 12.57688,0 5.88274,-4.86847 4.05706,7.91127 2.83994,1.21712 -0.40571,11.56261 -2.83994,0 -1.41997,21.50242 2.63709,-0.40571 0.40571,4.05706 3.65135,1.62282 4.86847,0 3.4485,-3.24564 5.27418,4.86847 0,1.62282 43.00482,0.60856 1.01427,-2.63709 10.7512,1.21712 0,8.72268 8.51983,9.93979 0,5.47703 12.98259,14.60541 2.43423,-0.81141 -1.01426,31.23936 -12.17118,7.70841 -30.22509,8.51982 0,14.60541 5.27418,4.86848 -0.40571,12.98258 -7.09985,10.34551 -4.86847,-0.20286 -0.40571,-4.86847 -5.67988,-1.82568 -0.60856,8.92553 -3.04279,0.60856 -0.20286,13.18545 4.66562,5.67988 -0.20285,5.27417 -3.24565,2.63709 8.72268,7.50556 0.20285,-1.01426 17.64821,-1.01427 3.8542,3.65136 -0.20285,25.55947 -0.40571,8.92553 -1.41997,7.50556 -1.21711,21.0967 35.29641,-65.72435 72.21565,-20.48815 8.11412,-11.76547 4.25991,-1.41997 0.60856,-5.27418 4.66562,0.20285 -0.40571,6.28845 5.67988,-5.88274 0.40571,-18.05391 -7.09985,1.62282 0,-3.4485 -4.66562,-0.40571 -0.20286,-2.63708 -13.59114,-0.60856 -10.75121,-11.56262 -16.22824,-2.43424 -14.40255,-9.73694 -6.08559,-2.23138 -26.37089,-31.64506"
     id="path3765"
     inkscape:connector-curvature="0" />
  <path
     style="fill:none;stroke:#fbfbfb;stroke-width:2.50000000000000000;stroke-linecap:round;stroke-linejoin:round;stroke-opacity:0.97948736000000003;stroke-miterlimit:4;stroke-dasharray:none"
     d="m 418.89134,289.64925 -14.80826,2.23138 -2.83994,-2.23138 -24.34236,-0.40571 -25.15376,9.33124 -5.07133,1.41997 -12.57688,8.11412 -3.04279,-1.82568 -2.02853,4.66562 -3.65136,-3.85421 -5.07132,8.51983 -5.67988,-0.60856 1.41997,13.38829 -5.88274,8.31697"
     id="path3767"
     inkscape:connector-curvature="0" />
  <path
     style="fill:none;stroke:#fbfbfb;stroke-width:2.50000000000000000;stroke-linecap:round;stroke-linejoin:round;stroke-opacity:0.97948736000000003;stroke-miterlimit:4;stroke-dasharray:none"
     d="m 353.16699,401.62408 41.58485,-0.40571 11.96833,9.73694 -5.07133,6.08559 1.01427,5.88274 4.25991,0.20285 5.47703,7.70841 6.28844,0.60856"
     id="path3769"
     inkscape:connector-curvature="0" />
  <path
     style="fill:none;stroke:#fbfbfb;stroke-width:2.50000000000000000;stroke-linecap:round;stroke-linejoin:round;stroke-opacity:0.97948736000000003;stroke-miterlimit:4;stroke-dasharray:none"
     d="m 111.56912,208.50807 0.60856,10.7512 9.12838,0 -2.43423,7.09986 2.02853,1.62282"
     id="path3771"
     inkscape:connector-curvature="0" />
  <path
     style="fill:url(#linearGradient3817);stroke:#fbfbfb;stroke-width:2.50000000000000000;stroke-linecap:round;stroke-linejoin:round;stroke-opacity:0.97948736000000003;fill-opacity:1;stroke-miterlimit:4;stroke-dasharray:none"
     d="m 199.2016,211.95657 c -0.81141,0 -16.43109,4.86847 -16.43109,4.86847"
     id="path3773"
     inkscape:connector-curvature="0" />
  <path
     style="fill:none;stroke:#fbfbfb;stroke-width:2.50000000000000000;stroke-linecap:round;stroke-linejoin:round;stroke-opacity:0.97948736000000003;stroke-miterlimit:4;stroke-dasharray:none"
     d="m 241.59787,206.27669 -0.81142,5.07132 2.23139,1.41997 -9.9398,45.64191"
     id="path3775"
     inkscape:connector-curvature="0" />
  <path
     style="fill:none;stroke:#fbfbfb;stroke-width:2.50000000000000000;stroke-linecap:round;stroke-linejoin:round;stroke-opacity:0.97948736000000003;stroke-miterlimit:4;stroke-dasharray:none"
     d="m 239.16363,234.06754 11.96832,3.4485 -0.20285,-6.28844 28.19656,2.63709 6.28844,-12.98259 8.51983,-2.02853 16.83679,10.3455 6.08559,0 1.21712,-15.41682"
     id="path3777"
     inkscape:connector-curvature="0" />
  <path
     style="fill:none;stroke:#fbfbfb;stroke-width:2.50000000000000000;stroke-linecap:round;stroke-linejoin:round;stroke-opacity:0.97948736000000003;stroke-miterlimit:4;stroke-dasharray:none"
     d="m 242.40928,551.32956 -1.62283,-3.4485 -27.38515,-26.57374 12.98259,-25.35662 0.60856,-21.29956 17.64821,12.77974"
     id="path3779"
     inkscape:connector-curvature="0" />
  <path
     style="fill:none;stroke:#fbfbfb;stroke-width:2.50000000000000000;stroke-linecap:round;stroke-linejoin:round;stroke-opacity:0.97948736000000003;stroke-miterlimit:4;stroke-dasharray:none"
     d="m 275.47431,322.10572 -10.14265,0 -24.74806,-11.15691 -6.49129,9.93979 -8.92553,0.20286 -3.85421,6.897 -3.65135,-2.43424 -3.0428,-2.23138 -2.63709,-2.83994 -36.10782,-0.60856 -1.82568,-0.60856 -4.05706,-2.02853 -1.82567,-1.21712 -2.02853,-0.20285 11.15691,-16.22824 -0.20285,-10.54835 -4.46277,-3.65135 3.4485,-2.63709 6.28844,0 2.23139,-6.08559 4.46276,-1.82568 1.41997,-5.67988 5.07133,-0.60856 -0.20286,-7.3027 4.05706,-2.83995"
     id="path3781"
     inkscape:connector-curvature="0" />
  <path
     style="fill:none;stroke:#fbfbfb;stroke-width:2.50000000000000000;stroke-linecap:round;stroke-linejoin:round;stroke-opacity:0.97948736000000003;stroke-miterlimit:4;stroke-dasharray:none"
     d="m 165.73086,315.81728 -3.65135,0.20285 -3.0428,-0.81141 -8.51982,-5.67988 0.60856,-8.51983 7.50556,-6.49129 1.41997,-6.897 4.05706,-3.24565 -9.73694,-1.01426 -17.44536,8.51982 -2.63709,5.67988 -4.66561,0 -0.81142,-6.08558 -13.794,1.82567 -11.35976,18.05391 -6.694149,-0.60855 -0.405706,6.08558 4.462765,0.60856 -1.217118,1.01427 -2.231382,3.65135 -5.882736,15.61968 3.854206,2.23138 -2.434235,5.07132 -6.491295,-1.62282 -0.405706,8.31697 -17.039648,17.2425 -16.836795,5.88274 -11.156912,25.15376"
     id="path3783"
     inkscape:connector-curvature="0" />
  <path
     style="fill:none;stroke:#fbfbfb;stroke-width:2.50000000000000000;stroke-linecap:round;stroke-linejoin:round;stroke-opacity:0.97948736000000003;stroke-miterlimit:4;stroke-dasharray:none"
     d="m 54.567444,407.91252 2.839941,1.01426 9.128383,5.67989 7.708412,0.81141 0.608559,3.8542 18.459619,0.40571 2.231382,-7.70841 7.50556,-8.31697 16.02538,-6.4913 0.40571,-10.14264 6.08559,-10.3455 0.4057,-29.21083 4.86847,-9.73694 -0.20285,-1.21712 -2.43423,-0.40571 0.20285,-6.08558 0,-0.81142 9.33123,0 2.23139,-12.77973 6.69414,-6.4913 3.4485,0"
     id="path3785"
     inkscape:connector-curvature="0" />
</svg>
